{
    "asset" : {
        "generator" : "Khronos glTF Blender I/O v3.3.27",
        "version" : "2.0"
    },
    "scene" : 0,
    "scenes" : [
        {
            "name" : "Scene",
            "nodes" : [
                0
            ]
        }
    ],
    "nodes" : [
        {
            "mesh" : 0,
            "name" : "Sphere",
            "translation" : [
                0.5688247680664062,
                0.7140588760375977,
                0.40292078256607056
            ]
        }
    ],
    "meshes" : [
        {
            "name" : "Sphere.001",
            "primitives" : [
                {
                    "attributes" : {
                        "POSITION" : 0,
                        "NORMAL" : 1,
                        "TEXCOORD_0" : 2
                    },
                    "indices" : 3
                }
            ]
        }
    ],
    "accessors" : [
        {
            "bufferView" : 0,
            "componentType" : 5126,
            "count" : 975,
            "max" : [
                1.0000001192092896,
                0.7071067690849304,
                1.0000003576278687
            ],
            "min" : [
                -1.0000005960464478,
                -1,
                -1.0000008344650269
            ],
            "type" : "VEC3"
        },
        {
            "bufferView" : 1,
            "componentType" : 5126,
            "count" : 975,
            "type" : "VEC3"
        },
        {
            "bufferView" : 2,
            "componentType" : 5126,
            "count" : 975,
            "type" : "VEC2"
        },
        {
            "bufferView" : 3,
            "componentType" : 5123,
            "count" : 5220,
            "type" : "SCALAR"
        }
    ],
    "bufferViews" : [
        {
            "buffer" : 0,
            "byteLength" : 11700,
            "byteOffset" : 0,
            "target" : 34962
        },
        {
            "buffer" : 0,
            "byteLength" : 11700,
            "byteOffset" : 11700,
            "target" : 34962
        },
        {
            "buffer" : 0,
            "byteLength" : 7800,
            "byteOffset" : 23400,
            "target" : 34962
        },
        {
            "buffer" : 0,
            "byteLength" : 10440,
            "byteOffset" : 31200,
            "target" : 34963
        }
    ],
    "buffers" : [
        {
            "byteLength" : 41640,
            "uri" : "data:application/octet-stream;base64,"
        }
    ]
}
